<svg width="48" height="54" viewBox="0 0 48 54" fill="none" xmlns="http://www.w3.org/2000/svg">
<path id="Vector" d="M40 0.333008H8C3.57333 0.333008 0 3.87967 0 8.25301V37.3463C0 41.7197 3.57333 45.2663 8 45.2663H10.0267C12.16 45.2663 14.1867 46.093 15.68 47.5863L20.24 52.093C22.32 54.1463 25.7067 54.1463 27.7867 52.093L32.3467 47.5863C33.84 46.093 35.8933 45.2663 38 45.2663H40C44.4267 45.2663 48 41.7197 48 37.3463V8.25301C48 3.87967 44.4267 0.333008 40 0.333008ZM24 10.333C27.44 10.333 30.2133 13.1063 30.2133 16.5463C30.2133 19.9863 27.44 22.7597 24 22.7597C20.56 22.7597 17.7867 19.9597 17.7867 16.5463C17.7867 13.1063 20.56 10.333 24 10.333ZM31.1467 35.1597H16.8533C14.6933 35.1597 13.44 32.7597 14.64 30.973C16.4533 28.2797 19.9733 26.4663 24 26.4663C28.0267 26.4663 31.5467 28.2797 33.36 30.973C34.56 32.7597 33.28 35.1597 31.1467 35.1597Z" fill="#323A46"/>
</svg>
